PathFileType	4	(X/Y/Z)	/Users/itak/Documents/Research/Walk-IL/dataset/trc/00345_00011.trc
DataRate	CameraRate	NumFrames	NumMarkers	Units	OrigDataRate	OrigDataStartFrame	OrigNumFrames
100.000000	100.000000	4	55	mm	100.000000	91	735
Frame#	Time	RPSI			LPSI			L3			STRN			T10			C7			CLAV			RBAK			LBAK			LSHO			LUPA			LAEL			LAOL			LWTS			LWPS			LFRA			LIFD			LHPS			LHTS			RSHO			RUPA			RAEL			RAOL			RWTS			RWPS			RFRA			RIFD			RHTS			RHPS			RBHD			LFHD			RFHD			LBHD			LHIP			RHIP			RASI			LASI			LKNE			LTHI			LANK			LTIP			LTOE			LMT1			LMT5			LHEE			RKNE			RTHI			RANK			RTIP			RTOE			RMT1			RMT5			RHEE			*53			*54			
		X1	Y1	Z1	X2	Y2	Z2	X3	Y3	Z3	X4	Y4	Z4	X5	Y5	Z5	X6	Y6	Z6	X7	Y7	Z7	X8	Y8	Z8	X9	Y9	Z9	X10	Y10	Z10	X11	Y11	Z11	X12	Y12	Z12	X13	Y13	Z13	X14	Y14	Z14	X15	Y15	Z15	X16	Y16	Z16	X17	Y17	Z17	X18	Y18	Z18	X19	Y19	Z19	X20	Y20	Z20	X21	Y21	Z21	X22	Y22	Z22	X23	Y23	Z23	X24	Y24	Z24	X25	Y25	Z25	X26	Y26	Z26	X27	Y27	Z27	X28	Y28	Z28	X29	Y29	Z29	X30	Y30	Z30	X31	Y31	Z31	X32	Y32	Z32	X33	Y33	Z33	X34	Y34	Z34	X35	Y35	Z35	X36	Y36	Z36	X37	Y37	Z37	X38	Y38	Z38	X39	Y39	Z39	X40	Y40	Z40	X41	Y41	Z41	X42	Y42	Z42	X43	Y43	Z43	X44	Y44	Z44	X45	Y45	Z45	X46	Y46	Z46	X47	Y47	Z47	X48	Y48	Z48	X49	Y49	Z49	X50	Y50	Z50	X51	Y51	Z51	X52	Y52	Z52	X53	Y53	Z53	X54	Y54	Z54	X55	Y55	Z55	

92	0.91	-355.0992736816406	976.72216796875	1066.695678710938	-358.4642944335938	971.741455078125	937.2691040039062	-357.9238891601562	1027.899536132812	1006.510314941406	-132.5017852783203	1218.975830078125	991.255859375	-374.9499816894531	1148.169799804688	998.1878662109375	-336.2539978027344	1396.654418945312	984.0138549804688	-177.6445465087891	1344.103149414062	987.1820068359375	-380.3537292480469	1257.371215820312	1053.098266601562	-346.7529602050781	1359.996826171875	881.4619140625	-261.2813415527344	1378.772583007812	824.6113891601562	-276.2527465820312	1259.326049804688	756.28662109375	-252.6042175292969	1055.332397460938	742.4175415039062	-317.0994262695312	1041.285888671875	796.1295166015625	-150.5277862548828	815.6389770507812	792.0164184570312	-185.5674133300781	803.8781127929688	733.886962890625	-232.818359375	951.6710205078125	734.9043579101562	-141.4603576660156	656.6329345703125	800.8818969726562	-187.2930450439453	733.5242919921875	740.0691528320312	-134.7480010986328	737.7122802734375	776.3016357421875	-275.9289855957031	1384.908569335938	1146.00634765625	-283.4404907226562	1319.94287109375	1209.992919921875	-255.7528381347656	1053.097778320312	1249.015747070312	-303.08837890625	1042.485717773438	1167.693481445312	-144.6819458007812	826.7326049804688	1195.454833984375	-169.8181610107422	812.6044921875	1265.820556640625	-225.7879028320312	987.6648559570312	1256.464233398438	-128.8822784423828	655.243408203125	1196.265258789062	-112.3340377807617	726.5296630859375	1205.111328125	-153.4790954589844	727.2756958007812	1260.760986328125	-284.9986572265625	1606.364135742188	1062.236694335938	-130.7438354492188	1615.573608398438	922.3555297851562	-127.5186004638672	1621.48974609375	1023.384338378906	-316.3375549316406	1593.974731445312	921.656982421875	-272.9834594726562	917.0364990234375	832.1055908203125	-269.3395385742188	922.2076416015625	1172.0595703125	-168.1573944091797	952.6644287109375	1130.536865234375	-152.7826995849609	942.330810546875	892.103271484375	-158.6234436035156	461.9122314453125	837.1832885742188	-177.2567291259766	597.515380859375	827.3861694335938	-323.9313049316406	61.76238250732422	827.727783203125	-243.2289123535156	254.9752807617188	818.2118530273438	-116.2835235595703	43.11906433105469	864.1060180664062	-182.4294738769531	31.37468719482422	910.7401123046875	-201.8914489746094	49.84270858764648	800.5886840820312	-352.2467651367188	57.69668579101562	897.454345703125	-246.3730773925781	458.8482055664062	1148.110595703125	-202.4609985351562	716.84228515625	1179.26904296875	-351.9566650390625	50.54508972167969	1104.5859375	-248.1446228027344	338.2015686035156	1134.828369140625	-151.6396484375	54.16487503051758	1095.810913085938	-195.2323608398438	48.17105865478516	1043.412719726562	-257.265625	38.36026000976562	1143.962890625	-390.6657409667969	55.08069610595703	1046.386962890625	nan	nan	nan	nan	nan	nan	
93	0.92	-354.4967956542969	975.9942626953125	1067.2490234375	-358.3130493164062	970.0621948242188	937.7742919921875	-357.8713684082031	1027.269653320312	1007.420043945312	-131.3610534667969	1217.644653320312	991.3456420898438	-374.1762084960938	1147.780395507812	999.4566040039062	-334.4103393554688	1396.058959960938	985.0819091796875	-176.0565032958984	1342.906372070312	987.4556274414062	-378.6617126464844	1256.896118164062	1054.386596679688	-345.6401062011719	1359.471923828125	882.6121215820312	-260.3459777832031	1377.809692382812	825.2757568359375	-276.1536865234375	1258.314208984375	757.148681640625	-253.0591125488281	1054.270141601562	743.0223999023438	-317.1154174804688	1040.244140625	797.1141967773438	-150.5616149902344	814.7139892578125	791.7822875976562	-186.136962890625	802.8773193359375	733.9450073242188	-233.3877410888672	950.5841064453125	735.2830810546875	-141.1265258789062	655.7206420898438	800.5294189453125	-187.7502593994141	732.5807495117188	739.7659912109375	-134.7759399414062	736.816162109375	775.8878784179688	-273.3250427246094	1383.985229492188	1146.828369140625	-280.6437072753906	1319.035888671875	1210.840942382812	-252.8825225830078	1052.331176757812	1250.726318359375	-300.7750244140625	1041.422119140625	1169.717163085938	-141.94189453125	825.96826171875	1196.932739257812	-166.7475891113281	811.9525756835938	1267.625244140625	-222.9478912353516	986.8736572265625	1258.218383789062	-126.0253219604492	654.4255981445312	1198.443969726562	-109.4916076660156	725.7525634765625	1206.849487304688	-150.2976226806641	726.693115234375	1262.781982421875	-282.4332885742188	1605.699829101562	1062.849853515625	-128.8437347412109	1614.549560546875	922.2171020507812	-125.1031341552734	1620.7001953125	1023.206665039062	-314.455322265625	1593.016845703125	922.4212036132812	-272.8956298828125	916.1088256835938	832.2504272460938	-268.252197265625	921.7549438476562	1172.415405273438	-167.2007904052734	952.3489379882812	1130.738891601562	-152.7293853759766	941.338134765625	892.317138671875	-149.7033996582031	462.591552734375	837.453125	-170.5994262695312	597.3713989257812	828.00927734375	-322.9293518066406	65.34359741210938	829.2676391601562	-238.5757446289062	256.9618530273438	819.0488891601562	-115.8582382202148	42.67057418823242	863.9309692382812	-181.6938934326172	31.59334945678711	910.9981689453125	-201.5896759033203	50.88755035400391	801.0552368164062	-350.668701171875	62.00503921508789	899.1749877929688	-245.4928131103516	458.53662109375	1148.951049804688	-201.2734375	716.5313110351562	1179.88671875	-351.9588012695312	50.49786376953125	1104.72119140625	-247.4406890869141	337.8551635742188	1135.415161132812	-151.6686553955078	53.72526550292969	1095.870727539062	-195.2528991699219	47.97691345214844	1043.505004882812	-257.3211975097656	38.103271484375	1144.230224609375	-390.6663818359375	55.17285919189453	1046.535400390625	nan	nan	nan	nan	nan	nan	
94	0.93	-353.8532104492188	975.2473754882812	1067.78759765625	-358.1130676269531	968.4122314453125	938.282958984375	-357.9063415527344	1026.733032226562	1008.342712402344	-130.139892578125	1216.3896484375	991.3358154296875	-373.3154907226562	1147.47412109375	1000.68115234375	-332.4818725585938	1395.536865234375	986.061279296875	-174.3941345214844	1341.785400390625	987.6282958984375	-376.8995971679688	1256.504028320312	1055.581298828125	-344.4577026367188	1359.010375976562	883.6731567382812	-259.36669921875	1376.906616210938	825.8421630859375	-276.0145874023438	1257.32666015625	757.9432373046875	-253.5000762939453	1053.224731445312	743.629150390625	-317.1001586914062	1039.245239257812	798.130126953125	-150.6773986816406	813.7850952148438	791.597412109375	-186.8071441650391	801.876708984375	734.052978515625	-234.0024566650391	949.501220703125	735.7067260742188	-140.9040985107422	654.822265625	800.2365112304688	-188.3267822265625	731.633544921875	739.5220947265625	-134.9152984619141	735.9111938476562	775.5263671875	-270.6315002441406	1383.107055664062	1147.570190429688	-277.7520446777344	1318.154418945312	1211.597045898438	-249.8943328857422	1051.59765625	1252.363891601562	-298.3611145019531	1040.37939453125	1171.693115234375	-139.1654052734375	825.1922607421875	1198.421142578125	-163.5991821289062	811.35107421875	1269.432739257812	-219.9920654296875	986.124755859375	1259.903198242188	-123.1303634643555	653.6057739257812	1200.740600585938	-106.5995178222656	724.9783325195312	1208.638549804688	-147.0512237548828	726.1649780273438	1264.86181640625	-279.725830078125	1605.086669921875	1063.453735351562	-126.7997055053711	1613.6103515625	922.0841064453125	-122.5453262329102	1619.946533203125	1023.025390625	-312.4263305664062	1592.174560546875	923.1671752929688	-272.720947265625	915.3342895507812	832.3583984375	-267.0814208984375	921.2474365234375	1172.72265625	-166.2058410644531	952.0343627929688	1130.916748046875	-152.5892028808594	940.4984741210938	892.4942626953125	-140.7420501708984	463.6706848144531	837.44140625	-163.940673828125	597.5763549804688	828.454345703125	-321.6949768066406	69.41889953613281	830.9569091796875	-233.708740234375	259.3242797851562	819.8535766601562	-115.3412170410156	42.24571228027344	863.7468872070312	-180.7352600097656	31.96419906616211	911.323974609375	-201.1856384277344	52.16437530517578	801.6080932617188	-348.7521362304688	66.87763977050781	901.1001586914062	-244.5665588378906	458.2383117675781	1149.698120117188	-200.1052703857422	716.2664184570312	1180.451782226562	-351.9428405761719	50.46080780029297	1104.828125	-246.7045593261719	337.5151672363281	1135.917602539062	-151.6622314453125	53.264892578125	1095.913818359375	-195.2518310546875	47.75601959228516	1043.568603515625	-257.3495788574219	37.87384033203125	1144.45849609375	-390.6144409179688	55.25607299804688	1046.676025390625	nan	nan	nan	nan	nan	nan	
95	0.9400000000000001	-353.1421203613281	974.517822265625	1068.314819335938	-357.8354187011719	966.875732421875	938.7988891601562	-357.9881286621094	1026.317016601562	1009.26708984375	-128.8298187255859	1215.259765625	991.2300415039062	-372.35693359375	1147.271240234375	1001.852600097656	-330.478515625	1395.115966796875	986.9392700195312	-172.6626739501953	1340.782470703125	987.6988525390625	-375.0641784667969	1256.220336914062	1056.675415039062	-343.2041015625	1358.632690429688	884.6351928710938	-258.345458984375	1376.10107421875	826.3071899414062	-275.8197326660156	1256.407836914062	758.6643676757812	-253.9101715087891	1052.240356445312	744.2437133789062	-317.0407409667969	1038.339965820312	799.1809692382812	-150.8824005126953	812.8789672851562	791.4688720703125	-187.5773315429688	800.910888671875	734.2175903320312	-234.6486511230469	948.4664306640625	736.1854858398438	-140.8371124267578	653.966064453125	800.0115356445312	-189.0358276367188	730.7110595703125	739.3526000976562	-135.188720703125	735.0216064453125	775.2327880859375	-267.8641662597656	1382.320434570312	1148.216064453125	-274.7815856933594	1317.351684570312	1212.251342773438	-246.7951049804688	1050.951416015625	1253.891479492188	-295.8414306640625	1039.41845703125	1173.579467773438	-136.3663024902344	824.4476318359375	1199.91259765625	-160.394287109375	810.852294921875	1271.229614257812	-216.9271240234375	985.4750366210938	1261.485229492188	-120.2346878051758	652.8238525390625	1203.150512695312	-103.6871185302734	724.25146484375	1210.475341796875	-143.7742004394531	725.7367553710938	1266.990234375	-276.8760681152344	1604.550537109375	1064.04150390625	-124.5995941162109	1612.769775390625	921.9603271484375	-119.8415832519531	1619.2333984375	1022.847717285156	-310.2434997558594	1591.49072265625	923.8875732421875	-272.4274597167969	914.7584228515625	832.4501342773438	-265.841064453125	920.7140502929688	1173.001708984375	-165.161865234375	951.727294921875	1131.090942382812	-152.3302154541016	939.8575439453125	892.6551513671875	-131.8130798339844	465.1626281738281	837.1498413085938	-157.3455505371094	598.1578369140625	828.6904907226562	-320.1493835449219	73.91600036621094	832.7587890625	-228.5987548828125	262.0210266113281	820.6084594726562	-114.6471481323242	41.86447906494141	863.586669921875	-179.4932861328125	32.51787948608398	911.736083984375	-200.5852355957031	53.6663932800293	802.2591552734375	-346.4426574707031	72.21944427490234	903.1810302734375	-243.6193542480469	457.9615783691406	1150.32861328125	-198.9710998535156	716.0508422851562	1180.962280273438	-351.916748046875	50.43057632446289	1104.901123046875	-245.9645385742188	337.1911926269531	1136.323364257812	-151.6252288818359	52.81153106689453	1095.945190429688	-195.2345428466797	47.52026748657227	1043.604614257812	-257.3537902832031	37.68213272094727	1144.64013671875	-390.5072021484375	55.30323791503906	1046.795043945312	nan	nan	nan	nan	nan	nan	
